<?xml version="1.0" encoding="UTF-8"?>
<svg id="Capa_1" data-name="Capa 1" xmlns="http://www.w3.org/2000/svg" viewBox="0 0 161.87 133.3">
  <defs>
    <style>
      .cls-1 {
        fill: #5e4dc3;
      }

      .cls-2 {
        fill: #50cce9;
      }
    </style>
  </defs>
  <path class="cls-1" d="M150.62,77.44c-4.03-5.5-9.21-9.33-15.56-11.48,5.44-2.16,9.86-5.67,13.26-10.55,3.41-4.87,5.11-10.26,5.11-16.16s-1.36-11.33-4.09-15.98c-2.72-4.65-6.4-8.25-11.05-10.8-4.65-2.55-9.81-3.83-15.48-3.83H55.97V58.89l11.31-17.93h25.51l-23.81,36.73c7.37,3.06,13.1,7.74,17.18,14.03,4.08,6.3,6.13,13.41,6.13,21.35v14.63h32.56c5.9,0,11.26-1.31,16.08-3.92,4.81-2.6,8.64-6.32,11.48-11.14,2.83-4.81,4.25-10.34,4.25-16.58,0-6.91-2.02-13.12-6.04-18.62Zm-94.65,17.52v32.74h13.01v-14.63c0-5.22-1.87-9.7-5.61-13.44-2.21-2.21-4.68-3.76-7.4-4.67Z"/>
  <path class="cls-2" d="M46.36,74.12h-13.77V8.54H9.29V127.7h23.3v-33.68h17.35c2.13,0,4.14,.32,6.03,.94V58.89l-9.61,15.23Z"/>
</svg>