<?xml version="1.0" encoding="UTF-8"?>
<svg id="Capa_1" data-name="Capa 1" xmlns="http://www.w3.org/2000/svg" viewBox="0 0 616.39 197.58">
  <defs>
    <style>
      .cls-1 {
        fill: #5e4dc3;
      }
    </style>
  </defs>
  <path class="cls-1" d="M96.97,39.07c5.67,0,10.83,1.28,15.48,3.83,4.65,2.55,8.33,6.15,11.05,10.8,2.72,4.65,4.08,9.98,4.08,15.99s-1.7,11.28-5.1,16.16c-3.4,4.88-7.82,8.39-13.27,10.54,6.35,2.16,11.54,5.98,15.56,11.48,4.02,5.5,6.04,11.71,6.04,18.62,0,6.24-1.42,11.76-4.25,16.58-2.83,4.82-6.66,8.53-11.48,11.14-4.82,2.61-10.18,3.91-16.07,3.91H30.13V39.07H96.97Zm2.38,44.39c2.61-2.61,3.91-5.78,3.91-9.52s-1.3-6.92-3.91-9.52c-2.61-2.61-5.78-3.91-9.52-3.91H54.45v26.87h35.38c3.74,0,6.91-1.3,9.52-3.91Zm2.89,48.98c2.83-2.83,4.25-6.23,4.25-10.2s-1.42-7.37-4.25-10.2c-2.83-2.83-6.24-4.25-10.2-4.25H54.45v28.91h37.59c3.97,0,7.37-1.42,10.2-4.25Z"/>
  <path class="cls-1" d="M154.37,77.93c4.36-4.36,10.4-6.55,18.11-6.55h23.98v19.9h-19.9c-1.48,0-2.75,.51-3.83,1.53-1.08,1.02-1.62,2.33-1.62,3.91v61.4h-23.3v-62.08c0-7.71,2.18-13.75,6.55-18.11Z"/>
  <path class="cls-1" d="M227.24,152.51c-7.37-3.74-13.07-8.93-17.09-15.56-4.03-6.63-6.04-14.03-6.04-22.2,0-8.96,1.84-16.89,5.53-23.81,3.68-6.92,8.79-12.25,15.31-15.99,6.52-3.74,13.86-5.61,22.03-5.61,13.83,0,24.18,4.23,31.04,12.67,6.86,8.45,10.29,19.36,10.29,32.74,0,2.95-.23,5.44-.68,7.48h-58.68c1.25,5.22,4.02,9.18,8.33,11.91,4.31,2.72,9.64,4.08,15.99,4.08h24.15v19.9h-24.49c-9.75,0-18.31-1.87-25.68-5.61Zm32.4-59.19c-3.01-3.17-7.17-4.76-12.5-4.76s-9.69,1.73-12.76,5.19c-3.06,3.46-4.93,7.74-5.61,12.84h36.23c-.57-5.67-2.35-10.09-5.36-13.27Z"/>
  <path class="cls-1" d="M322.83,152.51c-7.37-3.74-13.07-8.93-17.09-15.56-4.03-6.63-6.04-14.03-6.04-22.2,0-8.96,1.84-16.89,5.53-23.81,3.68-6.92,8.79-12.25,15.31-15.99,6.52-3.74,13.86-5.61,22.03-5.61,13.83,0,24.18,4.23,31.04,12.67,6.86,8.45,10.29,19.36,10.29,32.74,0,2.95-.23,5.44-.68,7.48h-58.68c1.25,5.22,4.02,9.18,8.33,11.91,4.31,2.72,9.64,4.08,15.99,4.08h24.15v19.9h-24.49c-9.75,0-18.31-1.87-25.68-5.61Zm32.4-59.19c-3.01-3.17-7.17-4.76-12.5-4.76s-9.69,1.73-12.76,5.19c-3.06,3.46-4.93,7.74-5.61,12.84h36.23c-.57-5.67-2.35-10.09-5.36-13.27Z"/>
  <path class="cls-1" d="M423.68,39.07V104.6h13.78l20.92-33.14h25.51l-23.81,36.71c7.37,3.06,13.1,7.73,17.18,14.02s6.12,13.4,6.12,21.33v14.61h-23.3v-14.61c0-5.21-1.87-9.69-5.61-13.42-3.74-3.74-8.22-5.61-13.44-5.61h-17.35v33.65h-23.3V39.07h23.3Z"/>
  <path class="cls-1" d="M515.61,152.09c-5.95-4.02-10.54-9.5-13.78-16.41-3.23-6.91-4.85-14.51-4.85-22.79s1.84-16.38,5.53-23.3c3.68-6.91,9.04-12.36,16.07-16.33,7.03-3.97,15.25-5.95,24.66-5.95s17.52,2.01,24.32,6.04c6.8,4.03,11.99,9.5,15.56,16.41,3.57,6.92,5.36,14.63,5.36,23.13v45.2h-23.3v-16.46h-.34c-6.46,11-15.99,16.5-28.57,16.5-7.82,0-14.71-2.01-20.67-6.04Zm43.29-21.17c3.97-4.87,5.95-11,5.95-18.37s-1.99-13.29-5.95-18.11c-3.97-4.82-9.3-7.23-15.99-7.23s-12.22,2.41-16.24,7.23c-4.03,4.82-6.04,10.86-6.04,18.11s2.01,13.49,6.04,18.37c4.02,4.88,9.44,7.31,16.24,7.31s12.02-2.44,15.99-7.31Z"/>
</svg>